<svg width="375" height="642" viewBox="0 0 375 642" fill="none" xmlns="http://www.w3.org/2000/svg">
<mask id="path-1-inside-1_641_575" fill="white">
<path d="M0 4C0 1.79086 1.79086 0 4 0H371C373.209 0 375 1.79086 375 4V642H0V4Z"/>
</mask>
<path d="M0 4C0 1.79086 1.79086 0 4 0H371C373.209 0 375 1.79086 375 4V642H0V4Z" fill="url(#paint0_linear_641_575)"/>
<path d="M0 4C0 1.23858 2.23858 -1 5 -1H370C372.761 -1 375 1.23858 375 4C375 2.34315 373.209 1 371 1H4C1.79086 1 0 2.34315 0 4ZM375 642H0H375ZM0 642V0V642ZM375 0V642V0Z" fill="#A2AECE" mask="url(#path-1-inside-1_641_575)"/>
<defs>
<linearGradient id="paint0_linear_641_575" x1="0" y1="321" x2="375" y2="321" gradientUnits="userSpaceOnUse">
<stop stop-color="#8387A5"/>
<stop offset="0.668269" stop-color="#DAE4F4"/>
<stop offset="1" stop-color="#96A3C6"/>
</linearGradient>
</defs>
</svg>
