<svg width="375" height="126" viewBox="0 0 375 126" fill="none" xmlns="http://www.w3.org/2000/svg">
<g filter="url(#filter0_i_641_586)">
<mask id="path-1-inside-1_641_586" fill="white">
<path d="M0 0H375V122C375 124.209 373.209 126 371 126H4C1.79086 126 0 124.209 0 122V0Z"/>
</mask>
<path d="M0 0H375V122C375 124.209 373.209 126 371 126H4C1.79086 126 0 124.209 0 122V0Z" fill="url(#paint0_linear_641_586)"/>
<path d="M0 0H375V122C375 124.209 373.209 126 371 126H4C1.79086 126 0 124.209 0 122V0Z" fill="url(#paint1_linear_641_586)"/>
<path d="M0 0H375V122C375 124.209 373.209 126 371 126H4C1.79086 126 0 124.209 0 122V0Z" fill="url(#paint2_linear_641_586)"/>
<path d="M0 0H375H0ZM375 122C375 125.314 372.314 128 369 128H6C2.68629 128 0 125.314 0 122C0 123.105 1.79086 124 4 124H371C373.209 124 375 123.105 375 122ZM0 126V0V126ZM375 0V126V0Z" fill="#2D303A" mask="url(#path-1-inside-1_641_586)"/>
</g>
<defs>
<filter id="filter0_i_641_586" x="-2" y="-2" width="377" height="128" filterUnits="userSpaceOnUse" color-interpolation-filters="sRGB">
<feFlood flood-opacity="0" result="BackgroundImageFix"/>
<feBlend mode="normal" in="SourceGraphic" in2="BackgroundImageFix" result="shape"/>
<feColorMatrix in="SourceAlpha" type="matrix" values="0 0 0 0 0 0 0 0 0 0 0 0 0 0 0 0 0 0 127 0" result="hardAlpha"/>
<feOffset dx="-2" dy="-2"/>
<feGaussianBlur stdDeviation="2"/>
<feComposite in2="hardAlpha" operator="arithmetic" k2="-1" k3="1"/>
<feColorMatrix type="matrix" values="0 0 0 0 0.0290598 0 0 0 0 0.00838261 0 0 0 0 0.31854 0 0 0 0.25 0"/>
<feBlend mode="normal" in2="shape" result="effect1_innerShadow_641_586"/>
</filter>
<linearGradient id="paint0_linear_641_586" x1="0" y1="63" x2="375" y2="63" gradientUnits="userSpaceOnUse">
<stop stop-color="#D2EDF6"/>
<stop offset="0.283654" stop-color="#F8F2FA"/>
<stop offset="0.836538" stop-color="#CDCDF2"/>
<stop offset="0.971154" stop-color="#F8F2FA"/>
<stop offset="1" stop-color="#DAE4F4"/>
</linearGradient>
<linearGradient id="paint1_linear_641_586" x1="0" y1="63" x2="375" y2="63" gradientUnits="userSpaceOnUse">
<stop stop-color="#D2EDF6"/>
<stop offset="0.0001" stop-color="#CCDFF7"/>
<stop offset="0.247714" stop-color="#F8F2FA"/>
<stop offset="0.932692" stop-color="#DAE4F4"/>
<stop offset="1" stop-color="#F8F2FA"/>
</linearGradient>
<linearGradient id="paint2_linear_641_586" x1="0" y1="63" x2="375" y2="63" gradientUnits="userSpaceOnUse">
<stop stop-color="#8387A5"/>
<stop offset="0.668269" stop-color="#DAE4F4"/>
<stop offset="1" stop-color="#96A3C6"/>
</linearGradient>
</defs>
</svg>
