<svg width="156" height="18" viewBox="0 0 156 18" fill="none" xmlns="http://www.w3.org/2000/svg">
<path fill-rule="evenodd" clip-rule="evenodd" d="M9.62068 1.21289C9.65967 1.21289 9.69808 1.21636 9.73591 1.2207H9.82673C9.93938 1.2207 10.0435 1.25827 10.1272 1.32177C10.1982 1.37557 10.2603 1.44116 10.3237 1.50377C10.5067 1.68469 10.6206 1.93517 10.6207 2.21289V11.8936C10.6205 14.8991 8.36231 16.8604 5.09822 16.8604C2.53667 16.8603 0.418616 15.687 0.010327 13.0977C-0.07527 12.5546 0.383473 12.1065 0.933179 12.1064H2.60505C3.14675 12.1066 3.55214 12.5595 3.774 13.0537C4.04467 13.6569 4.5826 13.9823 5.31208 13.9824C6.41433 13.9824 7.01417 13.2683 7.02498 11.8936V5.30371C7.02498 4.75143 6.57726 4.30371 6.02498 4.30371H1.7613C1.48516 4.30371 1.2613 4.07985 1.2613 3.80371V1.7207C1.2613 1.44456 1.48516 1.2207 1.7613 1.2207H7.90876C7.94684 1.2163 7.98572 1.21289 8.02498 1.21289H9.62068ZM16.984 1.21289C17.5361 1.21289 17.9837 1.66079 17.984 2.21289V10.8701C17.984 12.5008 19.1506 13.6836 20.8736 13.6836C22.5859 13.6836 23.7524 12.5008 23.7418 10.8701V2.21289C23.742 1.6608 24.1896 1.21292 24.7418 1.21289H26.4019C26.9541 1.21289 27.4017 1.66079 27.4019 2.21289V11.168C27.4019 14.6214 24.7693 16.8497 20.8736 16.8604C16.9458 16.8497 14.3453 14.6214 14.3453 11.168V2.21289C14.3455 1.66078 14.7931 1.21289 15.3453 1.21289H16.984ZM37.0982 1C40.2363 1 42.3935 2.49524 42.8951 4.79297C43.0137 5.33674 42.5513 5.79688 41.9947 5.79688H40.4136C39.8946 5.79688 39.4959 5.36954 39.2203 4.92969C38.8507 4.34004 38.1261 4.00586 37.0767 4.00586C35.6 4.00593 34.8404 4.64557 34.8297 5.51953C34.8084 6.47869 35.75 6.94767 37.1412 7.24609L38.4898 7.56543C41.4756 8.21557 43.2094 9.69738 43.2203 12.1699C43.2096 15.0904 40.9296 16.8497 37.0767 16.8604C33.6012 16.8507 31.2346 15.4516 30.7476 12.5869C30.6542 12.0358 31.1144 11.5735 31.6734 11.5732H33.2213C33.7513 11.5732 34.1605 12.0064 34.3834 12.4873C34.7964 13.3779 35.7565 13.8329 37.0338 13.833C38.5749 13.833 39.4958 13.1612 39.5172 12.1699C39.4955 11.2749 38.7037 10.8055 36.9918 10.4219L35.3648 10.0391C32.7 9.42088 31.0622 8.09882 31.0621 5.77539C31.0514 2.90827 33.5879 1.00006 37.0982 1ZM57.9742 1.21289C58.5263 1.21298 58.974 1.66084 58.9742 2.21289V3.17676C58.974 3.72881 58.5263 4.17667 57.9742 4.17676H55.2652C54.7129 4.17676 54.2652 4.62447 54.2652 5.17676V15.6465C54.2652 16.1987 53.8174 16.6464 53.2652 16.6465H51.648C51.0957 16.6465 50.648 16.1988 50.648 15.6465V5.17676C50.648 4.62462 50.2001 4.17699 49.648 4.17676H46.9381C46.3861 4.1765 45.9383 3.7287 45.9381 3.17676V2.21289C45.9383 1.66095 46.3861 1.21315 46.9381 1.21289H57.9742Z" fill="#161616"/>
<path d="M65.001 17.5671C64.4487 17.5671 64.001 17.1194 64.001 16.5671V1.23934C64.001 0.687051 64.4487 0.239334 65.001 0.239334H74.8323C75.3846 0.239334 75.8323 0.687049 75.8323 1.23933V2.56608C75.8323 3.11836 75.3846 3.56608 74.8323 3.56608H69.0974C68.5451 3.56608 68.0974 4.01379 68.0974 4.56608V6.22789C68.0974 6.78017 68.5451 7.22789 69.0974 7.22789H74.0612C74.6135 7.22789 75.0612 7.6756 75.0612 8.22789V9.55463C75.0612 10.1069 74.6135 10.5546 74.0612 10.5546H69.0974C68.5451 10.5546 68.0974 11.0023 68.0974 11.5546V16.5671C68.0974 17.1194 67.6496 17.5671 67.0974 17.5671H65.001Z" fill="#1298FF"/>
<path d="M80.495 17.5671C79.9427 17.5671 79.495 17.1194 79.495 16.5671V1.23934C79.495 0.687051 79.9427 0.239334 80.495 0.239334H86.6275C90.5552 0.239334 92.9769 2.45317 92.9648 5.98335C92.9748 7.95639 92.2232 9.45773 90.8789 10.4136C90.4036 10.7516 90.1816 11.3861 90.4633 11.8968L92.7732 16.0841C93.1409 16.7506 92.6588 17.5671 91.8976 17.5671H89.683C89.3149 17.5671 88.9766 17.3649 88.8022 17.0407L86.1636 12.1341C85.9892 11.8099 85.6509 11.6077 85.2828 11.6077H84.5913C84.0391 11.6077 83.5913 12.0554 83.5913 12.6077V16.5671C83.5913 17.1194 83.1436 17.5671 82.5913 17.5671H80.495ZM83.5913 7.35276C83.5913 7.90504 84.0391 8.35276 84.5913 8.35276H85.76C87.6998 8.36472 88.7239 7.61082 88.7239 5.98335C88.7239 4.35588 87.6998 3.54214 85.76 3.54214H84.5913C84.0391 3.54214 83.5913 3.98986 83.5913 4.54214V7.35276Z" fill="#1298FF"/>
<path d="M99.9166 0.239334C100.469 0.239334 100.917 0.687049 100.917 1.23933V16.5671C100.917 17.1194 100.469 17.5671 99.9166 17.5671H97.8203C97.268 17.5671 96.8203 17.1194 96.8203 16.5671V1.23934C96.8203 0.687051 97.268 0.239334 97.8203 0.239334H99.9166Z" fill="#1298FF"/>
<path d="M111.495 17.5671H106.109C105.557 17.5671 105.109 17.1194 105.109 16.5671V1.23934C105.109 0.687051 105.557 0.239334 106.109 0.239334H111.495C116.82 0.239334 120.097 3.48231 120.097 8.90323C120.097 14.3122 116.82 17.5671 111.495 17.5671ZM109.206 13.0728C109.206 13.6251 109.654 14.0728 110.206 14.0728H111.35C114.338 14.0848 115.977 12.6608 115.977 8.90323C115.977 5.13371 114.338 3.72164 111.302 3.70968H110.206C109.654 3.70968 109.206 4.15739 109.206 4.70968V13.0728Z" fill="#1298FF"/>
<path d="M136.306 5.88762C135.855 5.88762 135.476 5.57661 135.262 5.18031C134.714 4.16387 133.662 3.58015 132.242 3.59001C129.676 3.57804 128.049 5.51665 128.049 8.87929C128.049 12.2659 129.603 14.2164 132.242 14.2164C134.116 14.2164 135.325 13.4315 135.755 12.1435C135.934 11.6077 135.461 11.129 134.896 11.129H133.411C132.858 11.129 132.411 10.6813 132.411 10.129V9.13736C132.411 8.58507 132.858 8.13736 133.411 8.13736H138.88C139.433 8.13736 139.88 8.58507 139.88 9.13736V10.411C139.88 15.0302 136.688 17.8065 132.218 17.8065C127.23 17.8065 123.856 14.4079 123.856 8.92716C123.856 3.26691 127.507 0 132.146 0C135.724 0 138.569 1.92077 139.468 4.77791C139.65 5.3531 139.178 5.88762 138.575 5.88762H136.306Z" fill="#1298FF"/>
<path d="M144.905 17.5671C144.352 17.5671 143.905 17.1194 143.905 16.5671V1.23934C143.905 0.687051 144.352 0.239334 144.905 0.239334H154.977C155.529 0.239334 155.977 0.687049 155.977 1.23933V2.56608C155.977 3.11836 155.529 3.56608 154.977 3.56608H149.001C148.449 3.56608 148.001 4.01379 148.001 4.56608V6.22789C148.001 6.78017 148.449 7.22789 149.001 7.22789H154.35C154.903 7.22789 155.35 7.6756 155.35 8.22789V9.55463C155.35 10.1069 154.903 10.5546 154.35 10.5546H149.001C148.449 10.5546 148.001 11.0023 148.001 11.5546V13.2404C148.001 13.7927 148.449 14.2404 149.001 14.2404H155.001C155.553 14.2404 156.001 14.6881 156.001 15.2404V16.5671C156.001 17.1194 155.553 17.5671 155.001 17.5671H144.905Z" fill="#1298FF"/>
</svg>
